<?xml version="1.0" encoding="iso-8859-1"?>
<!-- Generator: Adobe Illustrator 19.0.0, SVG Export Plug-In . SVG Version: 6.00 Build 0)  -->
<svg version="1.1" id="Layer_1" xmlns="http://www.w3.org/2000/svg" xmlns:xlink="http://www.w3.org/1999/xlink" x="0px" y="0px"
	 viewBox="0 0 512 512" style="enable-background:new 0 0 512 512;" xml:space="preserve">
<path style="fill:#FFFFFF;" d="M384,279.273v151.273v23.273c0,19.247-15.663,34.909-34.909,34.909H162.909
	c-19.247,0-34.909-15.663-34.909-34.909v-23.273V279.273v-81.455c0-6.423,5.225-11.636,11.636-11.636h8.006h26.903v58.182
	c0,6.435,5.213,11.636,11.636,11.636s11.636-5.201,11.636-11.636v-58.182h116.364v58.182c0,6.435,5.213,11.636,11.636,11.636
	c6.423,0,11.636-5.201,11.636-11.636v-58.182h26.903h8.006c6.412,0,11.636,5.213,11.636,11.636V279.273z"/>
<g>
	<path style="fill:#FAA85F;" d="M364.358,174.545H147.642c-15.593,0-26.775-15.034-22.295-29.964l20.945-69.818
		c2.956-9.844,12.02-16.582,22.295-16.582h174.825c10.275,0,19.34,6.737,22.295,16.582l20.945,69.818
		C391.133,159.511,379.951,174.545,364.358,174.545z"/>
	<rect x="174.545" y="290.909" style="fill:#FAA85F;" width="162.909" height="139.636"/>
	<path style="fill:#FAA85F;" d="M430.545,430.545h-34.909V279.273l46.883,28.125c7.005,4.212,11.299,11.788,11.299,19.956v79.919
		C453.818,420.131,443.404,430.545,430.545,430.545z"/>
	<path style="fill:#FAA85F;" d="M81.455,430.545h34.909V279.273l-46.883,28.125c-7.005,4.212-11.299,11.788-11.299,19.956v79.919
		C58.182,420.131,68.596,430.545,81.455,430.545z"/>
</g>
<g>
	<path style="fill:#00384E;" d="M448.5,297.425l-41.228-24.739v-74.868c0-11.287-5.469-21.225-13.801-27.613
		c5.62-8.623,7.308-19.002,4.317-28.951l-20.945-69.818c-4.457-14.895-17.897-24.89-33.431-24.89h-17.594
		C325.818,20.876,304.943,0,279.273,0h-46.545c-25.67,0-46.545,20.876-46.545,46.545h-17.594c-15.535,0-28.975,9.996-33.443,24.89
		l-20.945,69.818c-2.991,9.949-1.292,20.329,4.317,28.951c-8.32,6.388-13.789,16.326-13.789,27.613v74.868L63.5,297.425
		c-10.461,6.272-16.954,17.734-16.954,29.94v79.907c0,19.247,15.663,34.909,34.909,34.909h23.273v11.636
		c0,32.081,26.1,58.182,58.182,58.182h186.182c32.081,0,58.182-26.1,58.182-58.182v-11.636h23.273
		c19.247,0,34.909-15.663,34.909-34.909v-79.907C465.455,315.159,458.961,303.697,448.5,297.425z M104.727,418.909H81.455
		c-6.412,0-11.636-5.213-11.636-11.636v-58.182h34.909V418.909z M104.727,325.818h-34.7c0.477-3.468,2.409-6.621,5.446-8.448
		l29.254-17.548V325.818z M232.727,23.273h46.545c12.835,0,23.273,10.438,23.273,23.273h-93.091
		C209.455,33.711,219.892,23.273,232.727,23.273z M136.495,147.933l20.945-69.818c1.489-4.969,5.969-8.297,11.148-8.297h174.813
		c5.178,0,9.658,3.328,11.148,8.297l20.945,69.818c1.071,3.561,0.419,7.308-1.804,10.287c-2.211,2.991-5.62,4.689-9.332,4.689
		h-26.903v-23.273c0-6.435-5.213-11.636-11.636-11.636c-6.423,0-11.636,5.201-11.636,11.636v23.273H197.818v-23.273
		c0-6.435-5.213-11.636-11.636-11.636s-11.636,5.201-11.636,11.636v23.273h-26.903c-3.712,0-7.121-1.699-9.344-4.689
		C136.087,155.241,135.436,151.494,136.495,147.933z M384,279.273v151.273v23.273c0,19.247-15.663,34.909-34.909,34.909H162.909
		c-19.247,0-34.909-15.663-34.909-34.909v-23.273V279.273v-81.455c0-6.423,5.225-11.636,11.636-11.636h8.006h26.903v58.182
		c0,6.435,5.213,11.636,11.636,11.636s11.636-5.201,11.636-11.636v-58.182h116.364v58.182c0,6.435,5.213,11.636,11.636,11.636
		c6.423,0,11.636-5.201,11.636-11.636v-58.182h26.903h8.006c6.412,0,11.636,5.213,11.636,11.636V279.273z M407.273,299.823
		l29.265,17.559c3.037,1.815,4.969,4.98,5.446,8.448h-34.711V299.823z M442.182,407.273c0,6.423-5.225,11.636-11.636,11.636h-23.273
		v-69.818h34.909V407.273z"/>
	<path style="fill:#00384E;" d="M337.455,279.273H174.545c-6.423,0-11.636,5.201-11.636,11.636v139.636
		c0,6.435,5.213,11.636,11.636,11.636h162.909c6.423,0,11.636-5.201,11.636-11.636V290.909
		C349.091,284.474,343.878,279.273,337.455,279.273z M325.818,302.545v23.273H186.182v-23.273H325.818z M186.182,418.909v-69.818
		h93.091v11.636c0,6.435,5.213,11.636,11.636,11.636c6.423,0,11.636-5.201,11.636-11.636v-11.636h23.273v69.818H186.182z"/>
</g>
<g>
	<rect x="162.909" y="209.455" style="fill:#72C6EF;" width="46.545" height="23.273"/>
	<rect x="302.545" y="209.455" style="fill:#72C6EF;" width="46.545" height="23.273"/>
</g>
<g>
</g>
<g>
</g>
<g>
</g>
<g>
</g>
<g>
</g>
<g>
</g>
<g>
</g>
<g>
</g>
<g>
</g>
<g>
</g>
<g>
</g>
<g>
</g>
<g>
</g>
<g>
</g>
<g>
</g>
</svg>
