<?xml version="1.0" encoding="iso-8859-1"?>
<!-- Generator: Adobe Illustrator 19.0.0, SVG Export Plug-In . SVG Version: 6.00 Build 0)  -->
<svg version="1.1" id="Layer_1" xmlns="http://www.w3.org/2000/svg" xmlns:xlink="http://www.w3.org/1999/xlink" x="0px" y="0px"
	 viewBox="0 0 512 512" style="enable-background:new 0 0 512 512;" xml:space="preserve">
<path style="fill:#FFFFFF;" d="M46.545,157.091c-12.835,0-23.273,10.438-23.273,23.273v209.455
	c0,12.835,10.438,23.273,23.273,23.273h418.909c12.835,0,23.273-10.438,23.273-23.273V180.364c0-12.835-10.438-23.273-23.273-23.273
	H360.727c-4.084,0-7.878-2.141-9.972-5.644l-28.125-46.883c-2.106-3.491-5.923-5.655-9.984-5.655h-113.28
	c-4.061,0-7.889,2.164-9.972,5.644l-28.125,46.883c-2.118,3.514-5.911,5.655-9.996,5.655H46.545z"/>
<path style="fill:#72C6EF;" d="M256,168.727c-57.844,0-104.727,46.883-104.727,104.727S198.156,378.182,256,378.182
	s104.727-46.883,104.727-104.727S313.844,168.727,256,168.727z M256,226.909c-25.67,0-46.545,20.876-46.545,46.545
	c0,6.423-5.213,11.636-11.636,11.636c-6.423,0-11.636-5.213-11.636-11.636c0-38.505,31.313-69.818,69.818-69.818
	c6.423,0,11.636,5.213,11.636,11.636S262.423,226.909,256,226.909z"/>
<g>
	<path style="fill:#00384E;" d="M465.455,436.364H46.545C20.876,436.364,0,415.488,0,389.818V180.364
		c0-25.67,20.876-46.545,46.545-46.545h98.141l24.739-41.228c6.272-10.461,17.734-16.954,29.929-16.954h113.28
		c12.195,0,23.668,6.493,29.929,16.954l24.751,41.228h98.141c25.67,0,46.545,20.876,46.545,46.545v209.455
		C512,415.488,491.124,436.364,465.455,436.364z M46.545,157.091c-12.835,0-23.273,10.438-23.273,23.273v209.455
		c0,12.835,10.438,23.273,23.273,23.273h418.909c12.835,0,23.273-10.438,23.273-23.273V180.364
		c0-12.835-10.438-23.273-23.273-23.273H360.727c-4.084,0-7.878-2.141-9.972-5.644l-28.125-46.883
		c-2.106-3.491-5.923-5.655-9.984-5.655h-113.28c-4.061,0-7.889,2.164-9.972,5.644l-28.125,46.883
		c-2.118,3.514-5.911,5.655-9.996,5.655H46.545z"/>
	<path style="fill:#00384E;" d="M256,389.818c-64.163,0-116.364-52.201-116.364-116.364S191.837,157.091,256,157.091
		s116.364,52.201,116.364,116.364S320.163,389.818,256,389.818z M256,180.364c-51.328,0-93.091,41.763-93.091,93.091
		s41.763,93.091,93.091,93.091s93.091-41.763,93.091-93.091S307.328,180.364,256,180.364z"/>
	<path style="fill:#00384E;" d="M453.818,226.909h-58.182c-6.423,0-11.636-5.213-11.636-11.636V192
		c0-6.423,5.213-11.636,11.636-11.636h58.182c6.423,0,11.636,5.213,11.636,11.636v23.273
		C465.455,221.696,460.241,226.909,453.818,226.909z"/>
</g>
<path style="fill:#FAA85F;" d="M93.091,401.455H46.545c-6.423,0-11.636-5.213-11.636-11.636V180.364
	c0-6.423,5.213-11.636,11.636-11.636h46.545c6.423,0,11.636,5.213,11.636,11.636v209.455
	C104.727,396.241,99.514,401.455,93.091,401.455z"/>
<g>
</g>
<g>
</g>
<g>
</g>
<g>
</g>
<g>
</g>
<g>
</g>
<g>
</g>
<g>
</g>
<g>
</g>
<g>
</g>
<g>
</g>
<g>
</g>
<g>
</g>
<g>
</g>
<g>
</g>
</svg>
