<?xml version="1.0" encoding="iso-8859-1"?>
<!-- Generator: Adobe Illustrator 19.0.0, SVG Export Plug-In . SVG Version: 6.00 Build 0)  -->
<svg version="1.1" id="Layer_1" xmlns="http://www.w3.org/2000/svg" xmlns:xlink="http://www.w3.org/1999/xlink" x="0px" y="0px"
	 viewBox="0 0 512 512" style="enable-background:new 0 0 512 512;" xml:space="preserve">
<polygon style="fill:#FAA85F;" points="442.182,139.636 279.273,139.636 279.273,46.545 442.182,46.545 488.727,93.091 "/>
<polygon style="fill:#72C6EF;" points="395.636,325.818 279.273,325.818 279.273,232.727 395.636,232.727 442.182,279.273 "/>
<polygon style="fill:#FAA85F;" points="69.818,139.636 232.727,139.636 232.727,232.727 69.818,232.727 23.273,186.182 "/>
<path style="fill:#00384E;" d="M442.182,151.273c3.095,0,6.051-1.222,8.227-3.409l46.545-46.545c4.55-4.55,4.55-11.904,0-16.454
	l-46.545-46.545c-2.176-2.188-5.132-3.409-8.227-3.409H290.909C290.909,15.663,275.247,0,256,0s-34.909,15.663-34.909,34.909V128
	H69.818c-3.095,0-6.051,1.222-8.227,3.409l-46.545,46.545c-4.55,4.55-4.55,11.904,0,16.454l46.545,46.545
	c2.176,2.188,5.132,3.409,8.227,3.409h151.273v197.818h-11.636c-19.247,0-34.909,15.663-34.909,34.909v11.636h-11.636
	c-6.435,0-11.636,5.201-11.636,11.636S156.474,512,162.909,512h186.182c6.435,0,11.636-5.201,11.636-11.636
	s-5.201-11.636-11.636-11.636h-11.636v-11.636c0-19.247-15.663-34.909-34.909-34.909h-11.636V337.455h104.727
	c3.095,0,6.051-1.222,8.227-3.409l46.545-46.545c4.55-4.55,4.55-11.904,0-16.454L403.863,224.5
	c-2.176-2.188-5.132-3.409-8.227-3.409H290.909v-69.818H442.182z M437.364,58.182l34.909,34.909L437.364,128H290.909V58.182H437.364
	z M74.636,221.091l-34.909-34.909l34.909-34.909h146.455v69.818H74.636z M314.182,477.091v11.636H197.818v-11.636
	c0-6.423,5.213-11.636,11.636-11.636h23.273h46.545h23.273C308.969,465.455,314.182,470.668,314.182,477.091z M244.364,442.182
	V34.909c0-6.412,5.213-11.636,11.636-11.636c6.423,0,11.636,5.225,11.636,11.636v407.273H244.364z M390.819,244.364l34.909,34.909
	l-34.909,34.909h-99.91v-69.818H390.819z"/>
<g>
	<path style="fill:#FFFFFF;" d="M314.182,477.091v11.636H197.818v-11.636c0-6.423,5.213-11.636,11.636-11.636h23.273h46.545h23.273
		C308.969,465.455,314.182,470.668,314.182,477.091z"/>
	<path style="fill:#FFFFFF;" d="M244.364,442.182V34.909c0-6.412,5.213-11.636,11.636-11.636c6.423,0,11.636,5.225,11.636,11.636
		v407.273H244.364z"/>
</g>
<g>
</g>
<g>
</g>
<g>
</g>
<g>
</g>
<g>
</g>
<g>
</g>
<g>
</g>
<g>
</g>
<g>
</g>
<g>
</g>
<g>
</g>
<g>
</g>
<g>
</g>
<g>
</g>
<g>
</g>
</svg>
